name analog
datacolumns 19
datarows 79
range 0.2225 0.2615
endheader
time	ground_force_vx	ground_force_vy	ground_force_vz	ground_force_px	ground_force_py	ground_force_pz	l_ground_force_vx	l_ground_force_vy	l_ground_force_vz	l_ground_force_px	l_ground_force_py	l_ground_force_pz	ground_torque_x	ground_torque_y	ground_torque_z	l_ground_torque_x	l_ground_torque_y	l_ground_torque_z
0.2225	-0.0	-0.0	-0.0	-1.840279459953308	38.14323425292969	-774.65478515625	-0.0	-0.0	-0.0	-0.0	-0.0	-0.0	-0.0	-0.0	-0.0	-0.0	-0.0	-0.0
0.223	-0.0	-0.0	-0.0	-2.225749969482422	38.78074645996094	-775.5652465820312	-0.0	-0.0	-0.0	-0.0	-0.0	-0.0	-0.0	-0.0	-0.0	-0.0	-0.0	-0.0
0.2235	-0.0	-0.0	-0.0	-3.173640727996826	38.55112075805664	-777.0662231445312	-0.0	-0.0	-0.0	-0.0	-0.0	-0.0	-0.0	-0.0	-0.0	-0.0	-0.0	-0.0
0.224	-0.0	-0.0	-0.0	-4.2353129386901855	38.1010627746582	-779.0162353515625	-0.0	-0.0	-0.0	-0.0	-0.0	-0.0	-0.0	-0.0	-0.0	-0.0	-0.0	-0.0
0.2245	-0.0	-0.0	-0.0	-5.543949127197266	37.9271354675293	-778.3256225585938	-0.0	-0.0	-0.0	-0.0	-0.0	-0.0	-0.0	-0.0	-0.0	-0.0	-0.0	-0.0
0.225	-0.0	-0.0	-0.0	-5.70947265625	38.09267807006836	-779.989501953125	-0.0	-0.0	-0.0	-0.0	-0.0	-0.0	-0.0	-0.0	-0.0	-0.0	-0.0	-0.0
0.2255	-0.0	-0.0	-0.0	-6.329787731170654	38.3136100769043	-782.2935791015625	-0.0	-0.0	-0.0	-0.0	-0.0	-0.0	-0.0	-0.0	-0.0	-0.0	-0.0	-0.0
0.226	-0.0	-0.0	-0.0	-7.157269477844238	37.65147399902344	-781.4186401367188	-0.0	-0.0	-0.0	-0.0	-0.0	-0.0	-0.0	-0.0	-0.0	-0.0	-0.0	-0.0
0.2265	-0.0	-0.0	-0.0	-7.858561038970947	38.1172981262207	-780.29541015625	-0.0	-0.0	-0.0	-0.0	-0.0	-0.0	-0.0	-0.0	-0.0	-0.0	-0.0	-0.0
0.227	-0.0	-0.0	-0.0	-7.807892322540283	38.59346771240234	-782.7843017578125	-0.0	-0.0	-0.0	-0.0	-0.0	-0.0	-0.0	-0.0	-0.0	-0.0	-0.0	-0.0
0.2275	-0.0	-0.0	-0.0	-8.292705535888672	38.403594970703125	-780.2051391601562	-0.0	-0.0	-0.0	-0.0	-0.0	-0.0	-0.0	-0.0	-0.0	-0.0	-0.0	-0.0
0.228	-0.0	-0.0	-0.0	-8.889753341674805	38.461669921875	-779.4530639648438	-0.0	-0.0	-0.0	-0.0	-0.0	-0.0	-0.0	-0.0	-0.0	-0.0	-0.0	-0.0
0.2285	-0.0	-0.0	-0.0	-8.757556915283203	39.0428466796875	-779.652099609375	-0.0	-0.0	-0.0	-0.0	-0.0	-0.0	-0.0	-0.0	-0.0	-0.0	-0.0	-0.0
0.229	-0.0	-0.0	-0.0	-8.88559341430664	38.2833366394043	-778.2102661132812	-0.0	-0.0	-0.0	-0.0	-0.0	-0.0	-0.0	-0.0	-0.0	-0.0	-0.0	-0.0
0.2295	-0.0	-0.0	-0.0	-8.785442352294922	38.13348007202149	-776.28955078125	-0.0	-0.0	-0.0	-0.0	-0.0	-0.0	-0.0	-0.0	-0.0	-0.0	-0.0	-0.0
0.23	-0.0	-0.0	-0.0	-8.921051025390625	37.30635070800781	-778.2250366210938	-0.0	-0.0	-0.0	-0.0	-0.0	-0.0	-0.0	-0.0	-0.0	-0.0	-0.0	-0.0
0.2305	-0.0	-0.0	-0.0	-8.38923454284668	36.81085968017578	-780.35791015625	-0.0	-0.0	-0.0	-0.0	-0.0	-0.0	-0.0	-0.0	-0.0	-0.0	-0.0	-0.0
0.231	-0.0	-0.0	-0.0	-8.346243858337402	35.609283447265625	-781.2206420898438	-0.0	-0.0	-0.0	-0.0	-0.0	-0.0	-0.0	-0.0	-0.0	-0.0	-0.0	-0.0
0.2315	-0.0	-0.0	-0.0	-7.635763645172119	34.222774505615234	-784.5957641601562	-0.0	-0.0	-0.0	-0.0	-0.0	-0.0	-0.0	-0.0	-0.0	-0.0	-0.0	-0.0
0.232	-0.0	-0.0	-0.0	-6.915431022644043	32.5755500793457	-787.5784301757812	-0.0	-0.0	-0.0	-0.0	-0.0	-0.0	-0.0	-0.0	-0.0	-0.0	-0.0	-0.0
0.2325	-0.0	-0.0	-0.0	-6.872369766235352	31.641292572021484	-790.4417114257812	-0.0	-0.0	-0.0	-0.0	-0.0	-0.0	-0.0	-0.0	-0.0	-0.0	-0.0	-0.0
0.233	-0.0	-0.0	-0.0	-6.859931468963623	30.614748001098636	-791.658935546875	-0.0	-0.0	-0.0	-0.0	-0.0	-0.0	-0.0	-0.0	-0.0	-0.0	-0.0	-0.0
0.2335	-0.0	-0.0	-0.0	-5.971064567565918	29.185680389404297	-792.8411254882812	-0.0	-0.0	-0.0	-0.0	-0.0	-0.0	-0.0	-0.0	-0.0	-0.0	-0.0	-0.0
0.234	-0.0	-0.0	-0.0	-5.352630615234375	28.17403984069824	-794.4957885742188	-0.0	-0.0	-0.0	-0.0	-0.0	-0.0	-0.0	-0.0	-0.0	-0.0	-0.0	-0.0
0.23450000000000001	-0.0	-0.0	-0.0	-4.955502033233643	27.26239585876465	-793.538330078125	-0.0	-0.0	-0.0	-0.0	-0.0	-0.0	-0.0	-0.0	-0.0	-0.0	-0.0	-0.0
0.23500000000000001	-0.0	-0.0	-0.0	-4.638946533203125	25.931339263916016	-793.0711059570312	-0.0	-0.0	-0.0	-0.0	-0.0	-0.0	-0.0	-0.0	-0.0	-0.0	-0.0	-0.0
0.23550000000000001	-0.0	-0.0	-0.0	-4.557936191558838	25.08338165283203	-791.818603515625	-0.0	-0.0	-0.0	-0.0	-0.0	-0.0	-0.0	-0.0	-0.0	-0.0	-0.0	-0.0
0.23600000000000002	-0.0	-0.0	-0.0	-3.4279468059539795	23.03621864318848	-792.73876953125	-0.0	-0.0	-0.0	-0.0	-0.0	-0.0	-0.0	-0.0	-0.0	-0.0	-0.0	-0.0
0.23650000000000002	-0.0	-0.0	-0.0	-3.3007888793945312	20.400501251220703	-795.0593872070312	-0.0	-0.0	-0.0	-0.0	-0.0	-0.0	-0.0	-0.0	-0.0	-0.0	-0.0	-0.0
0.23700000000000002	-0.0	-0.0	-0.0	-3.522555351257324	19.252166748046875	-797.2787475585938	-0.0	-0.0	-0.0	-0.0	-0.0	-0.0	-0.0	-0.0	-0.0	-0.0	-0.0	-0.0
0.23750000000000002	-0.0	-0.0	-0.0	-3.749288320541382	18.12703514099121	-799.074462890625	-0.0	-0.0	-0.0	-0.0	-0.0	-0.0	-0.0	-0.0	-0.0	-0.0	-0.0	-0.0
0.23800000000000002	-0.0	-0.0	-0.0	-4.501560211181641	16.61687469482422	-798.9212646484375	-0.0	-0.0	-0.0	-0.0	-0.0	-0.0	-0.0	-0.0	-0.0	-0.0	-0.0	-0.0
0.23850000000000002	-0.0	-0.0	-0.0	-4.815060138702393	15.773775100708008	-798.16845703125	-0.0	-0.0	-0.0	-0.0	-0.0	-0.0	-0.0	-0.0	-0.0	-0.0	-0.0	-0.0
0.23900000000000002	-0.0	-0.0	-0.0	-5.169740200042725	15.382808685302734	-799.5728149414062	-0.0	-0.0	-0.0	-0.0	-0.0	-0.0	-0.0	-0.0	-0.0	-0.0	-0.0	-0.0
0.23950000000000002	-0.0	-0.0	-0.0	-5.311275959014893	14.793481826782228	-798.0057983398438	-0.0	-0.0	-0.0	-0.0	-0.0	-0.0	-0.0	-0.0	-0.0	-0.0	-0.0	-0.0
0.24	-0.0	-0.0	-0.0	-5.620262145996094	14.528255462646484	-799.0737915039062	-0.0	-0.0	-0.0	-0.0	-0.0	-0.0	-0.0	-0.0	-0.0	-0.0	-0.0	-0.0
0.2405	-0.0	-0.0	-0.0	-6.022719860076904	14.83920192718506	-798.1946411132812	-0.0	-0.0	-0.0	-0.0	-0.0	-0.0	-0.0	-0.0	-0.0	-0.0	-0.0	-0.0
0.241	-0.0	-0.0	-0.0	-5.935429096221924	15.235443115234377	-796.059814453125	-0.0	-0.0	-0.0	-0.0	-0.0	-0.0	-0.0	-0.0	-0.0	-0.0	-0.0	-0.0
0.2415	-0.0	-0.0	-0.0	-6.197309494018555	15.199551582336426	-795.9319458007812	-0.0	-0.0	-0.0	-0.0	-0.0	-0.0	-0.0	-0.0	-0.0	-0.0	-0.0	-0.0
0.242	-0.0	-0.0	-0.0	-6.96384334564209	15.81613063812256	-794.6619873046875	-0.0	-0.0	-0.0	-0.0	-0.0	-0.0	-0.0	-0.0	-0.0	-0.0	-0.0	-0.0
0.2425	-0.0	-0.0	-0.0	-7.180575847625732	15.646732330322266	-796.067626953125	-0.0	-0.0	-0.0	-0.0	-0.0	-0.0	-0.0	-0.0	-0.0	-0.0	-0.0	-0.0
0.243	-0.0	-0.0	-0.0	-7.853859424591064	16.178001403808594	-795.008056640625	-0.0	-0.0	-0.0	-0.0	-0.0	-0.0	-0.0	-0.0	-0.0	-0.0	-0.0	-0.0
0.2435	-0.0	-0.0	-0.0	-8.168341636657715	16.489124298095703	-793.4219360351562	-0.0	-0.0	-0.0	-0.0	-0.0	-0.0	-0.0	-0.0	-0.0	-0.0	-0.0	-0.0
0.244	-0.0	-0.0	-0.0	-8.296577453613281	16.30629539489746	-791.8475341796875	-0.0	-0.0	-0.0	-0.0	-0.0	-0.0	-0.0	-0.0	-0.0	-0.0	-0.0	-0.0
0.2445	-0.0	-0.0	-0.0	-8.1605806350708	15.954341888427734	-790.2545166015625	-0.0	-0.0	-0.0	-0.0	-0.0	-0.0	-0.0	-0.0	-0.0	-0.0	-0.0	-0.0
0.245	-0.0	-0.0	-0.0	-8.210128784179688	15.814437866210938	-787.0533447265625	-0.0	-0.0	-0.0	-0.0	-0.0	-0.0	-0.0	-0.0	-0.0	-0.0	-0.0	-0.0
0.2455	-0.0	-0.0	-0.0	-8.028945922851562	15.819993019104004	-783.7166137695312	-0.0	-0.0	-0.0	-0.0	-0.0	-0.0	-0.0	-0.0	-0.0	-0.0	-0.0	-0.0
0.246	-0.0	-0.0	-0.0	-7.628119468688965	14.43540382385254	-780.8759155273438	-0.0	-0.0	-0.0	-0.0	-0.0	-0.0	-0.0	-0.0	-0.0	-0.0	-0.0	-0.0
0.2465	-0.0	-0.0	-0.0	-7.491345405578613	12.653014183044434	-778.7571411132812	-0.0	-0.0	-0.0	-0.0	-0.0	-0.0	-0.0	-0.0	-0.0	-0.0	-0.0	-0.0
0.247	-0.0	-0.0	-0.0	-7.313070297241211	10.914642333984377	-776.1194458007812	-0.0	-0.0	-0.0	-0.0	-0.0	-0.0	-0.0	-0.0	-0.0	-0.0	-0.0	-0.0
0.2475	-0.0	-0.0	-0.0	-7.538802146911621	9.177350044250488	-775.7821655273438	-0.0	-0.0	-0.0	-0.0	-0.0	-0.0	-0.0	-0.0	-0.0	-0.0	-0.0	-0.0
0.248	-0.0	-0.0	-0.0	-7.629886627197266	7.711211204528809	-776.1072387695312	-0.0	-0.0	-0.0	-0.0	-0.0	-0.0	-0.0	-0.0	-0.0	-0.0	-0.0	-0.0
0.2485	-0.0	-0.0	-0.0	-7.315261840820312	5.92320442199707	-775.761474609375	-0.0	-0.0	-0.0	-0.0	-0.0	-0.0	-0.0	-0.0	-0.0	-0.0	-0.0	-0.0
0.249	-0.0	-0.0	-0.0	-7.987192153930664	5.169563293457031	-775.0518188476562	-0.0	-0.0	-0.0	-0.0	-0.0	-0.0	-0.0	-0.0	-0.0	-0.0	-0.0	-0.0
0.2495	-0.0	-0.0	-0.0	-7.899209976196289	4.455038070678711	-773.2801513671875	-0.0	-0.0	-0.0	-0.0	-0.0	-0.0	-0.0	-0.0	-0.0	-0.0	-0.0	-0.0
0.25	-0.0	-0.0	-0.0	-7.848518371582031	3.1651315689086914	-773.6366577148438	-0.0	-0.0	-0.0	-0.0	-0.0	-0.0	-0.0	-0.0	-0.0	-0.0	-0.0	-0.0
0.2505	-0.0	-0.0	-0.0	-8.607311248779297	2.807908058166504	-772.584716796875	-0.0	-0.0	-0.0	-0.0	-0.0	-0.0	-0.0	-0.0	-0.0	-0.0	-0.0	-0.0
0.251	-0.0	-0.0	-0.0	-8.473941802978516	2.894890308380127	-772.4066162109375	-0.0	-0.0	-0.0	-0.0	-0.0	-0.0	-0.0	-0.0	-0.0	-0.0	-0.0	-0.0
0.2515	-0.0	-0.0	-0.0	-8.74217414855957	2.586602210998535	-773.469482421875	-0.0	-0.0	-0.0	-0.0	-0.0	-0.0	-0.0	-0.0	-0.0	-0.0	-0.0	-0.0
0.252	-0.0	-0.0	-0.0	-8.520181655883789	2.85178804397583	-773.6428833007812	-0.0	-0.0	-0.0	-0.0	-0.0	-0.0	-0.0	-0.0	-0.0	-0.0	-0.0	-0.0
0.2525	-0.0	-0.0	-0.0	-9.323600769042969	3.3869552612304688	-775.585693359375	-0.0	-0.0	-0.0	-0.0	-0.0	-0.0	-0.0	-0.0	-0.0	-0.0	-0.0	-0.0
0.253	-0.0	-0.0	-0.0	-9.366861343383787	3.5202879905700684	-776.1172485351562	-0.0	-0.0	-0.0	-0.0	-0.0	-0.0	-0.0	-0.0	-0.0	-0.0	-0.0	-0.0
0.2535	-0.0	-0.0	-0.0	-9.8578462600708	4.011206150054932	-776.288818359375	-0.0	-0.0	-0.0	-0.0	-0.0	-0.0	-0.0	-0.0	-0.0	-0.0	-0.0	-0.0
0.254	-0.0	-0.0	-0.0	-10.03623390197754	4.991405010223389	-777.70263671875	-0.0	-0.0	-0.0	-0.0	-0.0	-0.0	-0.0	-0.0	-0.0	-0.0	-0.0	-0.0
0.2545	-0.0	-0.0	-0.0	-9.81321620941162	6.372838497161865	-778.232177734375	-0.0	-0.0	-0.0	-0.0	-0.0	-0.0	-0.0	-0.0	-0.0	-0.0	-0.0	-0.0
0.255	-0.0	-0.0	-0.0	-10.214625358581545	7.843475341796875	-779.4681396484375	-0.0	-0.0	-0.0	-0.0	-0.0	-0.0	-0.0	-0.0	-0.0	-0.0	-0.0	-0.0
0.2555	-0.0	-0.0	-0.0	-9.81326675415039	9.180431365966797	-777.7030639648438	-0.0	-0.0	-0.0	-0.0	-0.0	-0.0	-0.0	-0.0	-0.0	-0.0	-0.0	-0.0
0.256	-0.0	-0.0	-0.0	-10.348052024841309	10.16031551361084	-776.992919921875	-0.0	-0.0	-0.0	-0.0	-0.0	-0.0	-0.0	-0.0	-0.0	-0.0	-0.0	-0.0
0.2565	-0.0	-0.0	-0.0	-10.616307258605955	11.362460136413574	-776.29150390625	-0.0	-0.0	-0.0	-0.0	-0.0	-0.0	-0.0	-0.0	-0.0	-0.0	-0.0	-0.0
0.257	-0.0	-0.0	-0.0	-10.481748580932615	11.186027526855469	-776.2882080078125	-0.0	-0.0	-0.0	-0.0	-0.0	-0.0	-0.0	-0.0	-0.0	-0.0	-0.0	-0.0
0.2575	-0.0	-0.0	-0.0	-10.528031349182127	11.23003387451172	-775.9395141601562	-0.0	-0.0	-0.0	-0.0	-0.0	-0.0	-0.0	-0.0	-0.0	-0.0	-0.0	-0.0
0.258	-0.0	-0.0	-0.0	-11.017732620239258	11.543560981750488	-777.3472290039062	-0.0	-0.0	-0.0	-0.0	-0.0	-0.0	-0.0	-0.0	-0.0	-0.0	-0.0	-0.0
0.2585	-0.0	-0.0	-0.0	-10.347881317138672	12.121734619140623	-777.8778076171875	-0.0	-0.0	-0.0	-0.0	-0.0	-0.0	-0.0	-0.0	-0.0	-0.0	-0.0	-0.0
0.259	-0.0	-0.0	-0.0	-9.770076751708984	14.302075386047363	-780.87841796875	-0.0	-0.0	-0.0	-0.0	-0.0	-0.0	-0.0	-0.0	-0.0	-0.0	-0.0	-0.0
0.2595	-0.0	-0.0	-0.0	-9.232946395874023	18.22409439086914	-786.7177734375	-0.0	-0.0	-0.0	-0.0	-0.0	-0.0	-0.0	-0.0	-0.0	-0.0	-0.0	-0.0
0.26	-0.0	-0.0	-0.0	-9.85512351989746	20.007892608642575	-789.8944091796875	-0.0	-0.0	-0.0	-0.0	-0.0	-0.0	-0.0	-0.0	-0.0	-0.0	-0.0	-0.0
0.2605	-0.0	-0.0	-0.0	-10.74863052368164	20.586652755737305	-789.3604125976562	-0.0	-0.0	-0.0	-0.0	-0.0	-0.0	-0.0	-0.0	-0.0	-0.0	-0.0	-0.0
0.261	-0.0	-0.0	-0.0	-11.642419815063477	20.13899040222168	-785.8253173828125	-0.0	-0.0	-0.0	-0.0	-0.0	-0.0	-0.0	-0.0	-0.0	-0.0	-0.0	-0.0
0.2615	-0.0	-0.0	-0.0	-11.86790657043457	20.63804817199707	-785.654541015625	-0.0	-0.0	-0.0	-0.0	-0.0	-0.0	-0.0	-0.0	-0.0	-0.0	-0.0	-0.0
